# xmcd
#
# Track frame offsets:
#	150
#	20185
#	38780
#	57105
#	76267
#	95210
#	112365
#	132335
#	148462
#	165360
#	185845
#
# Disc length: 2750 seconds
#
# Revision: 4
# Processed by: cddbd v1.5.2PL0 Copyright (c) Steve Scherf et al.
# Submitted via: EasyCDDAExtractor 15.3.0.1
#
DISCID=a60abc0b
DTITLE=Ednita Nazario - Pasiones
DYEAR=1994
DGENRE=Latin
TTITLE0=Gata Sin Luna
TTITLE1=Dime Tu
TTITLE2=Un Beso
TTITLE3=Como Antes
TTITLE4=Te Sigo Esperando
TTITLE5=Contra El Pasado
TTITLE6=Quiero Que Me Hagas El Amor
TTITLE7=No Voy A Llorar
TTITLE8=Evolucion
TTITLE9=Entre La Puerta Y El Reloj
TTITLE10=No Puedo Olvidarte
EXTD=
EXTT0=
EXTT1=
EXTT2=
EXTT3=
EXTT4=
EXTT5=
EXTT6=
EXTT7=
EXTT8=
EXTT9=
EXTT10=
PLAYORDER=
